<mxGraphModel dx="1422" dy="762" grid="1" gridSize="10" guides="1" tooltips="1" connect="1" arrows="1" fold="1" page="1" pageScale="1" pageWidth="850" pageHeight="1100" background="#ffffff">
  <root>
    <mxCell id="0"/>
    <mxCell id="1" parent="0"/>
    <!-- Users -->
    <mxCell id="2" value="ユーザーA" style="ellipse;whiteSpace=wrap;html=1;fillColor=#dae8fc;strokeColor=#6c8ebf;" vertex="1" parent="1">
      <mxGeometry x="170" y="200" width="100" height="60" as="geometry"/>
    </mxCell>
    <mxCell id="3" value="ユーザーB" style="ellipse;whiteSpace=wrap;html=1;fillColor=#dae8fc;strokeColor=#6c8ebf;" vertex="1" parent="1">
      <mxGeometry x="170" y="320" width="100" height="60" as="geometry"/>
    </mxCell>
    <!-- Products -->
    <mxCell id="4" value="商品1" style="ellipse;whiteSpace=wrap;html=1;fillColor=#f8cecc;strokeColor=#b85450;" vertex="1" parent="1">
      <mxGeometry x="390" y="160" width="100" height="60" as="geometry"/>
    </mxCell>
    <mxCell id="5" value="商品2" style="ellipse;whiteSpace=wrap;html=1;fillColor=#f8cecc;strokeColor=#b85450;" vertex="1" parent="1">
      <mxGeometry x="390" y="260" width="100" height="60" as="geometry"/>
    </mxCell>
    <mxCell id="6" value="商品3" style="ellipse;whiteSpace=wrap;html=1;fillColor=#f8cecc;strokeColor=#b85450;" vertex="1" parent="1">
      <mxGeometry x="390" y="360" width="100" height="60" as="geometry"/>
    </mxCell>
    <!-- Edges with weights -->
    <mxCell id="7" value="購入：2023/5/1&#10;¥3,000" style="edgeStyle=orthogonalEdgeStyle;rounded=0;orthogonalLoop=1;jettySize=auto;html=1;exitX=1;exitY=0.5;exitDx=0;exitDy=0;entryX=0;entryY=0.5;entryDx=0;entryDy=0;strokeWidth=2;" edge="1" parent="1" source="2" target="4">
      <mxGeometry relative="1" as="geometry"/>
    </mxCell>
    <mxCell id="8" value="閲覧：5回" style="edgeStyle=orthogonalEdgeStyle;rounded=0;orthogonalLoop=1;jettySize=auto;html=1;exitX=1;exitY=0.5;exitDx=0;exitDy=0;entryX=0;entryY=0.5;entryDx=0;entryDy=0;dashed=1;strokeWidth=1;" edge="1" parent="1" source="2" target="5">
      <mxGeometry relative="1" as="geometry"/>
    </mxCell>
    <mxCell id="9" value="購入：2023/4/15&#10;¥5,000" style="edgeStyle=orthogonalEdgeStyle;rounded=0;orthogonalLoop=1;jettySize=auto;html=1;exitX=1;exitY=0.5;exitDx=0;exitDy=0;entryX=0;entryY=0.5;entryDx=0;entryDy=0;strokeWidth=2;" edge="1" parent="1" source="3" target="5">
      <mxGeometry relative="1" as="geometry"/>
    </mxCell>
    <mxCell id="10" value="購入：2023/6/10&#10;¥2,500" style="edgeStyle=orthogonalEdgeStyle;rounded=0;orthogonalLoop=1;jettySize=auto;html=1;exitX=1;exitY=0.5;exitDx=0;exitDy=0;entryX=0;entryY=0.5;entryDx=0;entryDy=0;strokeWidth=2;" edge="1" parent="1" source="3" target="6">
      <mxGeometry relative="1" as="geometry"/>
    </mxCell>
    <mxCell id="11" value="閲覧：2回" style="edgeStyle=orthogonalEdgeStyle;rounded=0;orthogonalLoop=1;jettySize=auto;html=1;exitX=1;exitY=0.5;exitDx=0;exitDy=0;entryX=0;entryY=0.5;entryDx=0;entryDy=0;dashed=1;strokeWidth=1;" edge="1" parent="1" source="2" target="6">
      <mxGeometry relative="1" as="geometry"/>
    </mxCell>
  </root>
</mxGraphModel>